<mxfile host="app.diagrams.net" modified="2024-04-03T22:15:38.578Z" agent="Mozilla/5.0 (Windows NT 10.0; Win64; x64) AppleWebKit/537.36 (KHTML, like Gecko) Chrome/123.0.0.0 Safari/537.36" etag="SEdGw0V4LcKhCmKQeQhY" version="24.2.1" type="device">
  <diagram id="R2lEEEUBdFMjLlhIrx00" name="Page-1">
    <mxGraphModel dx="1434" dy="746" grid="1" gridSize="10" guides="1" tooltips="1" connect="1" arrows="1" fold="1" page="1" pageScale="1" pageWidth="850" pageHeight="1100" math="0" shadow="0" extFonts="Permanent Marker^https://fonts.googleapis.com/css?family=Permanent+Marker">
      <root>
        <mxCell id="0" />
        <mxCell id="1" parent="0" />
        <mxCell id="zxCo0N9qN0AXd16YrxHk-1" value="Producto" style="rounded=1;whiteSpace=wrap;html=1;fillColor=#008a00;strokeColor=#005700;fontColor=#ffffff;" parent="1" vertex="1">
          <mxGeometry x="160" y="160" width="100" height="40" as="geometry" />
        </mxCell>
        <mxCell id="zxCo0N9qN0AXd16YrxHk-2" value="Cliente" style="rounded=1;whiteSpace=wrap;html=1;fillColor=#008a00;strokeColor=#005700;fontColor=#ffffff;" parent="1" vertex="1">
          <mxGeometry x="520" y="160" width="100" height="40" as="geometry" />
        </mxCell>
        <mxCell id="zxCo0N9qN0AXd16YrxHk-9" value="" style="endArrow=none;html=1;rounded=0;entryX=0.5;entryY=1;entryDx=0;entryDy=0;exitX=0.25;exitY=0;exitDx=0;exitDy=0;" parent="1" source="zxCo0N9qN0AXd16YrxHk-2" target="zxCo0N9qN0AXd16YrxHk-15" edge="1">
          <mxGeometry relative="1" as="geometry">
            <mxPoint x="340" y="380" as="sourcePoint" />
            <mxPoint x="542" y="81" as="targetPoint" />
          </mxGeometry>
        </mxCell>
        <mxCell id="zxCo0N9qN0AXd16YrxHk-10" value="" style="endArrow=none;html=1;rounded=0;entryX=0.5;entryY=1;entryDx=0;entryDy=0;exitX=0.5;exitY=0;exitDx=0;exitDy=0;" parent="1" source="zxCo0N9qN0AXd16YrxHk-2" target="zxCo0N9qN0AXd16YrxHk-16" edge="1">
          <mxGeometry relative="1" as="geometry">
            <mxPoint x="580" y="130" as="sourcePoint" />
            <mxPoint x="635" y="80" as="targetPoint" />
          </mxGeometry>
        </mxCell>
        <mxCell id="zxCo0N9qN0AXd16YrxHk-11" value="" style="endArrow=none;html=1;rounded=0;entryX=0;entryY=1;entryDx=0;entryDy=0;exitX=0.75;exitY=0;exitDx=0;exitDy=0;" parent="1" source="zxCo0N9qN0AXd16YrxHk-2" target="zxCo0N9qN0AXd16YrxHk-17" edge="1">
          <mxGeometry relative="1" as="geometry">
            <mxPoint x="590" y="140" as="sourcePoint" />
            <mxPoint x="720.2512626584708" y="74.14213562373084" as="targetPoint" />
          </mxGeometry>
        </mxCell>
        <mxCell id="zxCo0N9qN0AXd16YrxHk-12" value="" style="endArrow=none;html=1;rounded=0;entryX=0;entryY=0.5;entryDx=0;entryDy=0;exitX=1;exitY=0.5;exitDx=0;exitDy=0;" parent="1" source="zxCo0N9qN0AXd16YrxHk-2" target="zxCo0N9qN0AXd16YrxHk-18" edge="1">
          <mxGeometry relative="1" as="geometry">
            <mxPoint x="670" y="140" as="sourcePoint" />
            <mxPoint x="730" y="130" as="targetPoint" />
          </mxGeometry>
        </mxCell>
        <mxCell id="zxCo0N9qN0AXd16YrxHk-13" value="" style="endArrow=none;html=1;rounded=0;entryX=0;entryY=0;entryDx=0;entryDy=0;exitX=1;exitY=1;exitDx=0;exitDy=0;" parent="1" source="zxCo0N9qN0AXd16YrxHk-2" target="zxCo0N9qN0AXd16YrxHk-14" edge="1">
          <mxGeometry relative="1" as="geometry">
            <mxPoint x="680" y="160" as="sourcePoint" />
            <mxPoint x="730.98" y="194" as="targetPoint" />
          </mxGeometry>
        </mxCell>
        <mxCell id="zxCo0N9qN0AXd16YrxHk-14" value="IdClientes" style="ellipse;whiteSpace=wrap;html=1;align=center;fontStyle=4;" parent="1" vertex="1">
          <mxGeometry x="690" y="240" width="100" height="40" as="geometry" />
        </mxCell>
        <mxCell id="zxCo0N9qN0AXd16YrxHk-15" value="Nombre" style="ellipse;whiteSpace=wrap;html=1;align=center;" parent="1" vertex="1">
          <mxGeometry x="460" y="40" width="100" height="40" as="geometry" />
        </mxCell>
        <mxCell id="zxCo0N9qN0AXd16YrxHk-16" value="Apellidos" style="ellipse;whiteSpace=wrap;html=1;align=center;" parent="1" vertex="1">
          <mxGeometry x="580" y="40" width="100" height="40" as="geometry" />
        </mxCell>
        <mxCell id="zxCo0N9qN0AXd16YrxHk-17" value="Dni" style="ellipse;whiteSpace=wrap;html=1;align=center;" parent="1" vertex="1">
          <mxGeometry x="700" y="40" width="100" height="40" as="geometry" />
        </mxCell>
        <mxCell id="zxCo0N9qN0AXd16YrxHk-18" value="FechaNac" style="ellipse;whiteSpace=wrap;html=1;align=center;" parent="1" vertex="1">
          <mxGeometry x="720" y="160" width="100" height="40" as="geometry" />
        </mxCell>
        <mxCell id="zxCo0N9qN0AXd16YrxHk-21" value="Nombre" style="ellipse;whiteSpace=wrap;html=1;align=center;" parent="1" vertex="1">
          <mxGeometry x="20" y="70" width="100" height="40" as="geometry" />
        </mxCell>
        <mxCell id="zxCo0N9qN0AXd16YrxHk-23" value="" style="endArrow=none;html=1;rounded=0;entryX=1;entryY=1;entryDx=0;entryDy=0;exitX=0.25;exitY=0;exitDx=0;exitDy=0;" parent="1" source="zxCo0N9qN0AXd16YrxHk-1" target="zxCo0N9qN0AXd16YrxHk-21" edge="1">
          <mxGeometry relative="1" as="geometry">
            <mxPoint x="555" y="170" as="sourcePoint" />
            <mxPoint x="520" y="90" as="targetPoint" />
          </mxGeometry>
        </mxCell>
        <mxCell id="zxCo0N9qN0AXd16YrxHk-24" value="" style="endArrow=none;html=1;rounded=0;entryX=0.5;entryY=1;entryDx=0;entryDy=0;exitX=0.5;exitY=0;exitDx=0;exitDy=0;" parent="1" source="zxCo0N9qN0AXd16YrxHk-1" edge="1">
          <mxGeometry relative="1" as="geometry">
            <mxPoint x="565" y="180" as="sourcePoint" />
            <mxPoint x="210" y="80" as="targetPoint" />
          </mxGeometry>
        </mxCell>
        <mxCell id="zxCo0N9qN0AXd16YrxHk-25" value="Direccion" style="ellipse;whiteSpace=wrap;html=1;align=center;" parent="1" vertex="1">
          <mxGeometry x="720" y="100" width="100" height="40" as="geometry" />
        </mxCell>
        <mxCell id="zxCo0N9qN0AXd16YrxHk-26" value="" style="endArrow=none;html=1;rounded=0;entryX=0;entryY=0.5;entryDx=0;entryDy=0;exitX=1;exitY=0;exitDx=0;exitDy=0;" parent="1" source="zxCo0N9qN0AXd16YrxHk-2" target="zxCo0N9qN0AXd16YrxHk-25" edge="1">
          <mxGeometry relative="1" as="geometry">
            <mxPoint x="630" y="190" as="sourcePoint" />
            <mxPoint x="730" y="190" as="targetPoint" />
          </mxGeometry>
        </mxCell>
        <mxCell id="zxCo0N9qN0AXd16YrxHk-27" value="PrecioUnitario" style="ellipse;whiteSpace=wrap;html=1;align=center;" parent="1" vertex="1">
          <mxGeometry x="10" y="160" width="100" height="40" as="geometry" />
        </mxCell>
        <mxCell id="zxCo0N9qN0AXd16YrxHk-28" value="" style="endArrow=none;html=1;rounded=0;entryX=1;entryY=0.5;entryDx=0;entryDy=0;exitX=0;exitY=0.5;exitDx=0;exitDy=0;" parent="1" source="zxCo0N9qN0AXd16YrxHk-1" target="zxCo0N9qN0AXd16YrxHk-27" edge="1">
          <mxGeometry relative="1" as="geometry">
            <mxPoint x="195" y="170" as="sourcePoint" />
            <mxPoint x="80" y="90" as="targetPoint" />
          </mxGeometry>
        </mxCell>
        <mxCell id="zxCo0N9qN0AXd16YrxHk-29" value="Proveedor" style="rounded=1;whiteSpace=wrap;html=1;fillColor=#008a00;strokeColor=#005700;fontColor=#ffffff;" parent="1" vertex="1">
          <mxGeometry x="160" y="360" width="100" height="40" as="geometry" />
        </mxCell>
        <mxCell id="zxCo0N9qN0AXd16YrxHk-30" value="Nombre" style="ellipse;whiteSpace=wrap;html=1;align=center;" parent="1" vertex="1">
          <mxGeometry x="10" y="360" width="100" height="40" as="geometry" />
        </mxCell>
        <mxCell id="zxCo0N9qN0AXd16YrxHk-31" value="Codigo" style="ellipse;whiteSpace=wrap;html=1;align=center;fontStyle=4;" parent="1" vertex="1">
          <mxGeometry x="160" y="40" width="100" height="40" as="geometry" />
        </mxCell>
        <mxCell id="zxCo0N9qN0AXd16YrxHk-32" value="" style="endArrow=none;html=1;rounded=0;entryX=1;entryY=0.5;entryDx=0;entryDy=0;exitX=0;exitY=0.5;exitDx=0;exitDy=0;" parent="1" source="zxCo0N9qN0AXd16YrxHk-29" target="zxCo0N9qN0AXd16YrxHk-30" edge="1">
          <mxGeometry relative="1" as="geometry">
            <mxPoint x="170" y="190" as="sourcePoint" />
            <mxPoint x="120" y="190" as="targetPoint" />
          </mxGeometry>
        </mxCell>
        <mxCell id="zxCo0N9qN0AXd16YrxHk-33" value="Compra" style="shape=rhombus;perimeter=rhombusPerimeter;whiteSpace=wrap;html=1;align=center;fillColor=#1ba1e2;fontColor=#ffffff;strokeColor=#006EAF;" parent="1" vertex="1">
          <mxGeometry x="330" y="150" width="120" height="60" as="geometry" />
        </mxCell>
        <mxCell id="zxCo0N9qN0AXd16YrxHk-34" value="" style="endArrow=none;html=1;rounded=0;exitX=0;exitY=0.5;exitDx=0;exitDy=0;" parent="1" source="zxCo0N9qN0AXd16YrxHk-2" target="zxCo0N9qN0AXd16YrxHk-33" edge="1">
          <mxGeometry relative="1" as="geometry">
            <mxPoint x="555" y="170" as="sourcePoint" />
            <mxPoint x="520" y="90" as="targetPoint" />
          </mxGeometry>
        </mxCell>
        <mxCell id="zxCo0N9qN0AXd16YrxHk-35" value="" style="endArrow=none;html=1;rounded=0;entryX=1;entryY=0.5;entryDx=0;entryDy=0;" parent="1" target="zxCo0N9qN0AXd16YrxHk-1" edge="1">
          <mxGeometry relative="1" as="geometry">
            <mxPoint x="330" y="180" as="sourcePoint" />
            <mxPoint x="530" y="100" as="targetPoint" />
          </mxGeometry>
        </mxCell>
        <mxCell id="zxCo0N9qN0AXd16YrxHk-36" value="Suministra" style="shape=rhombus;perimeter=rhombusPerimeter;whiteSpace=wrap;html=1;align=center;fillColor=#1ba1e2;fontColor=#ffffff;strokeColor=#006EAF;" parent="1" vertex="1">
          <mxGeometry x="150" y="250" width="120" height="60" as="geometry" />
        </mxCell>
        <mxCell id="zxCo0N9qN0AXd16YrxHk-37" value="" style="endArrow=none;html=1;rounded=0;entryX=0.5;entryY=1;entryDx=0;entryDy=0;exitX=0.5;exitY=0;exitDx=0;exitDy=0;" parent="1" source="zxCo0N9qN0AXd16YrxHk-36" target="zxCo0N9qN0AXd16YrxHk-1" edge="1">
          <mxGeometry relative="1" as="geometry">
            <mxPoint x="340" y="190" as="sourcePoint" />
            <mxPoint x="270" y="190" as="targetPoint" />
          </mxGeometry>
        </mxCell>
        <mxCell id="zxCo0N9qN0AXd16YrxHk-38" value="" style="endArrow=none;html=1;rounded=0;entryX=0.5;entryY=0;entryDx=0;entryDy=0;exitX=0.5;exitY=1;exitDx=0;exitDy=0;" parent="1" source="zxCo0N9qN0AXd16YrxHk-36" target="zxCo0N9qN0AXd16YrxHk-29" edge="1">
          <mxGeometry relative="1" as="geometry">
            <mxPoint x="350" y="200" as="sourcePoint" />
            <mxPoint x="280" y="200" as="targetPoint" />
          </mxGeometry>
        </mxCell>
        <mxCell id="zxCo0N9qN0AXd16YrxHk-41" value="1" style="text;html=1;align=center;verticalAlign=middle;resizable=0;points=[];autosize=1;strokeColor=none;fillColor=none;" parent="1" vertex="1">
          <mxGeometry x="215" y="328" width="30" height="30" as="geometry" />
        </mxCell>
        <mxCell id="zxCo0N9qN0AXd16YrxHk-42" value="n" style="text;html=1;align=center;verticalAlign=middle;resizable=0;points=[];autosize=1;strokeColor=none;fillColor=none;" parent="1" vertex="1">
          <mxGeometry x="215" y="198" width="30" height="30" as="geometry" />
        </mxCell>
        <mxCell id="zxCo0N9qN0AXd16YrxHk-43" value="n" style="text;html=1;align=center;verticalAlign=middle;resizable=0;points=[];autosize=1;strokeColor=none;fillColor=none;" parent="1" vertex="1">
          <mxGeometry x="475" y="148" width="30" height="30" as="geometry" />
        </mxCell>
        <mxCell id="zxCo0N9qN0AXd16YrxHk-44" value="n" style="text;html=1;align=center;verticalAlign=middle;resizable=0;points=[];autosize=1;strokeColor=none;fillColor=none;" parent="1" vertex="1">
          <mxGeometry x="275" y="148" width="30" height="30" as="geometry" />
        </mxCell>
        <mxCell id="zxCo0N9qN0AXd16YrxHk-45" value="Direccion" style="ellipse;whiteSpace=wrap;html=1;align=center;" parent="1" vertex="1">
          <mxGeometry x="310" y="360" width="100" height="40" as="geometry" />
        </mxCell>
        <mxCell id="zxCo0N9qN0AXd16YrxHk-46" value="Nif" style="ellipse;whiteSpace=wrap;html=1;align=center;fontStyle=4;" parent="1" vertex="1">
          <mxGeometry x="10" y="288" width="100" height="40" as="geometry" />
        </mxCell>
        <mxCell id="zxCo0N9qN0AXd16YrxHk-47" value="" style="endArrow=none;html=1;rounded=0;entryX=1;entryY=0.5;entryDx=0;entryDy=0;exitX=0;exitY=0;exitDx=0;exitDy=0;" parent="1" source="zxCo0N9qN0AXd16YrxHk-29" target="zxCo0N9qN0AXd16YrxHk-46" edge="1">
          <mxGeometry relative="1" as="geometry">
            <mxPoint x="170" y="390" as="sourcePoint" />
            <mxPoint x="120" y="390" as="targetPoint" />
          </mxGeometry>
        </mxCell>
        <mxCell id="zxCo0N9qN0AXd16YrxHk-48" value="" style="endArrow=none;html=1;rounded=0;entryX=1;entryY=0.5;entryDx=0;entryDy=0;exitX=0;exitY=0.5;exitDx=0;exitDy=0;" parent="1" source="zxCo0N9qN0AXd16YrxHk-45" target="zxCo0N9qN0AXd16YrxHk-29" edge="1">
          <mxGeometry relative="1" as="geometry">
            <mxPoint x="180" y="400" as="sourcePoint" />
            <mxPoint x="130" y="400" as="targetPoint" />
          </mxGeometry>
        </mxCell>
      </root>
    </mxGraphModel>
  </diagram>
</mxfile>
